<?xml version="1.0" encoding="utf-8" ?>
<svg baseProfile="full" height="116" version="1.1" width="435" xmlns="http://www.w3.org/2000/svg" xmlns:ev="http://www.w3.org/2001/xml-events" xmlns:xlink="http://www.w3.org/1999/xlink"><defs /><polyline fill="none" points="331,98 330,99 330,109 333,109 333,100 332,99 332,98" stroke="black" stroke-width="1" /><polyline fill="none" points="397,97 396,98 394,98 393,99 393,101 392,102 392,106 393,107 393,108 394,109 395,109 396,110 400,110 401,109 402,109 403,108 403,107 404,106 401,106 400,107 399,107 398,108 395,105 396,104 405,104 407,106 407,108 408,109 410,109 411,110 414,110 415,109 416,109 416,108 415,108 414,107 411,107 409,105 409,102 411,100 416,100 416,98 415,98 414,97 411,97 410,98 409,98 406,101 406,103 405,104 404,103 404,100 402,98 400,98 399,97" stroke="black" stroke-width="1" /><polyline fill="none" points="351,97 350,98 348,98 346,100 346,101 345,102 345,105 346,106 346,108 347,109 349,109 350,110 353,110 354,109 356,109 356,108 357,107 357,106 354,106 353,107 350,107 348,105 349,104 357,104 357,101 356,100 356,99 355,98 353,98 352,97" stroke="black" stroke-width="1" /><polyline fill="none" points="342,97 341,98 337,98 337,109 338,110 339,109 339,103 340,102 340,101 341,100 342,100 343,99 344,99 344,98 342,100 340,100 340,102 339,103 339,109 338,110 337,109 337,99 338,98 341,98" stroke="black" stroke-width="1" /><polyline fill="none" points="321,97 320,98 316,98 316,99 315,100 315,113 316,114 318,114 318,110 319,109 320,109 321,110 323,110 324,109 325,109 326,108 326,107 327,106 327,101 326,100 326,99 325,98 323,98 322,97" stroke="black" stroke-width="1" /><polyline fill="none" points="307,97 306,98 305,98 304,99 304,103 305,104 307,104 309,106 309,107 308,108 307,108 306,107 304,107 304,109 305,109 306,110 309,110 310,109 312,109 312,104 311,103 309,103 307,101 307,100 308,99 309,100 311,100 311,98 310,98 309,97" stroke="black" stroke-width="1" /><polyline fill="none" points="296,97 295,98 290,98 290,103 289,104 289,105 290,106 290,107 289,108 290,109 292,109 292,102 294,100 297,100 298,101 298,109 301,109 301,101 300,100 300,98 298,98 297,97" stroke="black" stroke-width="1" /><polyline fill="none" points="383,91 382,92 381,92 381,94 384,94 386,96 386,109 387,110 389,108 389,95 390,94 393,94 393,91" stroke="black" stroke-width="1" /><polyline fill="none" points="369,91 368,92 369,93 369,97 368,98 366,98 365,97 364,97 363,98 361,98 361,99 360,100 360,102 359,103 359,105 360,106 360,108 361,109 362,109 363,110 366,110 367,109 371,109 371,91" stroke="black" stroke-width="1" /><polyline fill="none" points="331,91 330,92 330,94 333,94 333,92 332,91" stroke="black" stroke-width="1" /><polyline fill="none" points="284,91 283,92 283,109 285,109 286,108 285,107 285,104 286,103 285,102 285,96 286,95 286,93" stroke="black" stroke-width="1" /><polyline fill="none" points="419,90 419,91 418,92 418,94 419,95 418,96 419,97 419,98 418,99 418,100 419,101 419,102 418,103 418,108 419,109 421,109 421,102 423,100 426,100 427,101 427,109 430,109 430,101 429,100 429,98 427,98 426,97 424,97 423,98 422,98 421,97 421,91 420,91" stroke="black" stroke-width="1" /><polyline fill="none" points="354,58 353,59 353,62 352,63 352,65 351,66 351,73 351,66 352,65 352,63 353,62 353,59 354,58 358,58 359,59 359,60 360,61 360,64 361,65 361,69 361,65 360,64 360,61 359,60 359,58" stroke="black" stroke-width="1" /><polyline fill="none" points="340,58 340,59 341,60 341,63 342,64 342,66 343,67 343,70 344,71 344,73 345,74 345,77 346,78 346,80 352,80 353,79 353,77 354,76 354,73 356,71 358,73 358,76 359,77 359,80 365,80 366,79 366,78 367,77 367,74 368,73 368,71 369,70 369,67 370,66 370,64 371,63 371,61 372,60 372,58 366,58 365,59 365,63 364,64 364,68 363,69 363,71 363,69 364,68 364,64 365,63 365,59 366,58 371,58 372,59 372,60 371,61 371,63 370,64 370,66 369,67 369,70 368,71 368,73 367,74 367,77 364,80 360,80 359,79 359,77 358,76 358,73 357,72 357,66 356,67 355,66 355,72 354,73 354,76 353,77 353,78 351,80 347,80 346,79 346,78 345,77 345,74 344,73 344,71 343,70 343,67 342,66 342,64 341,63 341,60 340,59 341,58 346,58 347,59 347,61 348,62 348,67 349,68 349,73 349,68 348,67 348,62 347,61 347,58" stroke="black" stroke-width="1" /><polyline fill="none" points="422,57 421,58 419,58 418,59 417,59 415,61 415,62 414,63 414,65 413,66 413,73 414,74 414,76 417,79 418,79 419,80 422,80 423,81 426,81 427,80 430,80 431,79 432,79 432,77 431,76 431,75 422,75 420,73 420,72 421,71 433,71 433,64 432,63 432,61 429,58 426,58 425,57" stroke="black" stroke-width="1" /><polyline fill="none" points="409,57 408,58 406,58 405,59 405,61 405,60 407,58 408,58 409,57 411,59 411,62 409,64 407,64 406,65 405,65 405,78 403,80 399,80 398,79 398,59 399,58 402,58 403,59 403,60 403,58 398,58 398,80 404,80 404,79 405,78 405,66 406,65 407,65 408,64 409,64 410,63 411,63 411,58 410,58" stroke="black" stroke-width="1" /><polyline fill="none" points="381,57 380,58 377,58 376,59 375,59 375,60 376,61 376,63 379,63 380,62 384,62 386,64 385,65 383,65 382,66 379,66 378,67 377,67 374,70 374,77 375,78 375,79 376,79 377,80 379,80 380,81 382,81 383,80 385,80 386,79 387,80 393,80 393,65 392,64 392,61 389,58 386,58 385,57" stroke="black" stroke-width="1" /><polyline fill="none" points="294,57 293,58 290,58 289,59 288,59 286,61 286,62 285,63 285,65 284,66 284,72 285,73 285,75 286,76 286,77 288,79 290,79 291,80 293,80 294,81 296,81 297,80 300,80 301,79 302,79 305,76 305,74 306,73 306,65 305,64 305,62 302,59 301,59 300,58 298,58 297,57" stroke="black" stroke-width="1" /><polyline fill="none" points="212,57 211,58 208,58 206,60 205,60 205,61 204,62 204,63 203,64 203,67 202,68 202,71 203,72 203,74 204,75 204,77 206,79 208,79 209,80 211,80 212,81 216,81 217,80 221,80 221,75 212,75 209,72 210,71 222,71 222,70 223,69 223,67 222,66 222,63 221,62 221,61 218,58 216,58 215,57" stroke="black" stroke-width="1" /><polyline fill="none" points="135,57 134,58 132,58 128,62 128,63 127,64 127,68 126,69 126,70 127,71 127,74 128,75 128,76 129,77 129,78 130,78 131,79 132,79 133,80 135,80 136,81 140,81 141,80 145,80 145,75 136,75 133,72 134,71 146,71 146,70 147,69 147,66 146,65 146,63 145,62 145,61 142,58 140,58 139,57" stroke="black" stroke-width="1" /><polyline fill="none" points="154,52 153,53 152,53 152,54 151,55 151,57 150,58 149,58 149,63 150,63 151,64 151,70 152,71 152,77 153,78 153,79 154,80 157,80 158,81 160,81 161,80 162,80 162,79 163,78 163,77 162,76 162,75 160,75 158,73 158,64 159,63 161,63 163,61 163,58 160,58 158,56 158,52" stroke="black" stroke-width="1" /><polyline fill="none" points="268,49 267,50 265,50 262,53 262,55 261,56 261,60 262,61 262,63 265,66 267,66 268,67 269,67 270,68 271,68 274,71 274,72 271,75 267,75 266,74 262,74 261,75 261,79 262,79 263,80 266,80 267,81 271,81 272,80 274,80 275,79 277,79 280,76 280,74 281,73 281,70 280,69 280,67 279,66 279,65 278,64 277,64 276,63 275,63 274,62 273,62 272,61 271,61 270,60 269,60 268,59 268,57 270,55 276,55 277,56 279,54 279,50 278,50 277,49" stroke="black" stroke-width="1" /><polyline fill="none" points="197,49 196,50 195,50 195,53 194,54 194,59 193,60 193,64 192,65 192,72 192,65 193,64 193,60 194,59 194,54 195,53 195,51 197,49 200,49 202,51 201,52 201,55 200,56 200,60 199,61 199,63 198,64 198,68 197,69 197,72 196,73 196,76 195,77 195,78 193,80 189,80 187,78 187,76 186,75 186,71 185,70 185,65 184,64 184,59 184,64 185,65 185,70 186,71 186,75 187,76 187,79 188,80 194,80 195,79 195,77 196,76 196,73 197,72 197,69 198,68 198,64 199,63 199,61 200,60 200,56 201,55 201,52 202,51 200,49" stroke="black" stroke-width="1" /><polyline fill="none" points="182,49 181,50 180,50 180,52 179,53 179,57 178,58 178,63 177,64 177,72 177,64 178,63 178,58 179,57 179,53 180,52 180,51 182,49 186,49 188,51 188,55 189,56 189,61 190,62 190,72 190,62 189,61 189,56 188,55 188,51 187,50 187,49" stroke="black" stroke-width="1" /><polyline fill="none" points="165,49 165,52 166,53 166,57 167,58 167,61 168,62 168,66 169,67 169,70 170,71 170,75 171,76 171,78 172,79 172,80 179,80 179,78 180,77 180,73 181,72 181,68 182,67 182,59 182,67 181,68 181,72 180,73 180,77 179,78 179,79 178,80 173,80 171,78 171,76 170,75 170,71 169,70 169,67 168,66 168,62 167,61 167,58 166,57 166,53 165,52 165,50 166,49 170,49 172,51 172,53 173,54 173,59 174,60 174,64 175,65 175,72 175,65 174,64 174,60 173,59 173,54 172,53 172,50 171,50 170,49" stroke="black" stroke-width="1" /><polyline fill="none" points="100,49 99,50 98,50 98,80 104,80 104,61 105,60 106,61 106,63 107,64 107,65 108,66 108,67 109,68 109,69 110,70 110,71 111,72 111,73 112,74 112,75 113,76 113,77 114,78 114,79 115,80 122,80 122,49 118,49 116,51 116,65 117,66 117,69 116,70 115,69 115,67 114,66 114,64 113,63 113,62 112,61 112,60 111,59 111,58 110,57 110,56 108,54 108,53 107,52 107,51 106,50 105,50 104,49" stroke="black" stroke-width="1" /><polyline fill="none" points="318,47 317,48 315,48 312,51 312,54 311,55 311,57 310,58 309,58 308,59 308,61 309,62 309,63 310,63 311,64 311,79 312,80 317,80 318,79 318,64 319,63 320,63 321,62 322,62 323,63 324,62 325,63 326,63 327,64 327,76 328,77 328,78 330,80 332,80 333,81 335,81 336,80 338,80 338,75 335,75 334,74 334,73 333,72 333,64 334,63 337,63 338,62 338,58 335,58 333,56 333,52 329,52 328,53 327,53 327,56 325,58 319,58 318,57 318,55 320,53 321,53 322,52 323,52 323,48 322,47" stroke="black" stroke-width="1" /><polyline fill="none" points="229,47 228,48 227,48 226,49 226,78 227,79 227,80 232,80 232,79 233,78 235,80 237,80 238,81 240,81 241,80 243,80 244,79 245,79 246,78 246,77 247,76 247,75 248,74 248,71 249,70 249,68 248,67 248,64 247,63 247,61 244,58 242,58 241,57 238,57 237,58 235,58 234,59 233,58 233,48 230,48" stroke="black" stroke-width="1" /><polyline fill="none" points="86,21 85,22 84,22 82,24 81,24 78,27 77,27 74,30 73,30 72,31 72,33 74,35 74,36 76,38 76,39 77,40 78,40 79,39 80,39 82,37 83,37 85,35 86,35 88,33 89,33 91,31 92,31 93,30 93,28 92,27 92,26 90,24 90,23 88,21" stroke="black" stroke-width="1" /><polyline fill="none" points="53,1 53,20 54,21 56,21 57,22 58,22 59,23 60,23 61,24 62,24 64,26 65,26 66,27 67,27 68,28 70,26 71,26 73,24 74,24 76,22 77,22 79,20 80,20 82,18 83,18 83,16 76,9 75,9 73,7 72,7 71,6 70,6 69,5 68,5 67,4 65,4 64,3 62,3 61,2 59,2 58,1" stroke="black" stroke-width="1" /><polyline fill="none" points="37,0 37,17 36,18 34,18 33,19 30,19 29,20 27,20 26,21 25,21 24,22 23,22 22,23 20,23 18,25 17,25 15,27 14,27 8,33 8,34 6,36 6,37 5,38 5,39 4,40 4,41 3,42 3,43 2,44 2,46 1,47 1,50 0,51 0,58 0,51 1,50 1,47 2,46 2,44 3,43 3,42 5,40 5,39 6,38 6,37 8,35 8,34 15,27 16,27 18,25 19,25 21,23 22,23 23,22 24,22 25,21 26,21 27,20 29,20 30,21 29,22 28,22 27,23 26,23 25,24 24,24 23,25 22,25 20,27 19,27 13,33 13,34 11,36 11,37 10,38 10,39 9,40 9,41 8,42 8,44 7,45 7,47 6,48 6,52 5,53 5,64 6,65 6,69 7,70 7,72 8,73 8,75 9,76 9,77 10,78 10,79 11,80 11,81 13,83 13,84 20,91 21,91 23,93 24,93 25,94 26,94 27,95 29,95 30,96 32,96 33,97 37,97 38,98 37,99 32,99 31,98 29,98 28,97 26,97 25,96 23,96 21,94 20,94 18,92 17,92 13,88 12,88 10,86 10,85 6,81 6,80 5,79 5,78 3,76 3,75 2,74 2,72 1,71 1,68 0,67 0,60 0,67 1,68 1,71 2,72 2,74 3,75 3,76 4,77 4,78 5,79 5,80 6,81 6,82 10,86 10,87 11,88 12,88 16,92 17,92 19,94 20,94 21,95 22,95 23,96 25,96 26,97 28,97 29,98 31,98 32,99 37,99 38,100 45,100 46,99 52,99 53,98 55,98 55,96 53,96 52,95 54,93 56,93 57,92 58,92 59,91 60,91 61,90 62,90 65,87 66,87 71,82 71,81 73,79 73,78 75,76 75,75 76,74 76,72 77,71 77,69 78,68 78,64 79,63 79,54 78,53 78,49 77,48 77,46 76,45 76,44 75,43 75,41 73,39 73,38 71,36 71,35 66,30 65,30 63,28 62,28 60,26 58,26 57,25 56,25 55,24 53,24 52,23 50,23 49,22 42,22 41,21 42,22 49,22 50,23 52,23 53,24 55,24 56,25 57,25 58,26 59,26 61,28 62,28 64,30 65,30 71,36 71,37 73,39 73,40 75,42 75,43 76,44 76,45 77,46 77,48 78,49 78,53 79,54 79,63 78,64 78,68 77,69 77,71 76,72 76,73 75,74 75,75 73,77 73,78 71,80 71,81 64,88 63,88 60,91 59,91 58,92 57,92 56,93 54,93 53,92 54,91 55,91 56,90 57,90 58,89 59,89 62,86 63,86 65,84 65,83 68,80 68,79 69,78 69,77 70,76 70,74 71,73 71,72 72,71 72,68 73,67 73,51 72,50 72,48 71,47 71,45 70,44 70,42 69,41 69,40 67,38 67,37 59,29 58,29 57,28 56,28 55,27 54,27 53,26 52,26 51,25 49,25 48,24 41,24 47,24 48,25 48,30 49,31 53,31 53,28 54,27 55,27 57,29 58,29 60,31 61,31 62,32 62,33 65,36 64,37 62,37 59,34 60,33 59,33 59,35 61,37 62,37 63,38 65,36 67,38 67,39 69,41 69,42 70,43 70,44 67,47 66,47 64,49 63,49 61,51 60,51 58,49 58,48 55,45 54,45 52,43 50,43 49,42 45,42 44,41 38,41 37,40 37,24 38,23 38,22 37,23 35,23 33,21 34,20 39,20 40,19 46,19 47,20 48,19 48,0 47,1 48,2 48,19 47,20 46,19 40,19 39,20 34,20 33,19 34,18 38,18 37,17" stroke="black" stroke-width="1" /></svg>